<?xml version="1.0" encoding="UTF-8" standalone="no"?>
<svg
   version="1.1"
   id="svg2"
   viewBox="0 0 116.6 92.472"
   height="92.472"
   width="116.6"
   xmlns="http://www.w3.org/2000/svg"
   xmlns:svg="http://www.w3.org/2000/svg"
   xmlns:rdf="http://www.w3.org/1999/02/22-rdf-syntax-ns#"
   xmlns:cc="http://creativecommons.org/ns#"
   xmlns:dc="http://purl.org/dc/elements/1.1/">
  <metadata
     id="metadata28">
    <rdf:RDF>
      <cc:Work
         rdf:about="">
        <dc:format>image/svg+xml</dc:format>
        <dc:type
           rdf:resource="http://purl.org/dc/dcmitype/StillImage" />
      </cc:Work>
    </rdf:RDF>
  </metadata>
  <defs
     id="defs26" />
  <g
     style="display:inline"
     id="layer1"
     transform="translate(-152.338,-14.264)">
    <path
       id="path6"
       d="m 241.114,95.092 h -18.64 c -3.88,-0.25 -5.084,-3.02 -3.496,-6.015 l 19.396,-32.048 c 0.37,-0.634 0.938,-0.796 2.026,-0.67 v -0.006 h 0.016 c 3.51,0.478 6.256,-1.585 7.65,-3.303 0.882,-1.23 2.34,-0.948 2.94,-0.698 7.612,3.713 12.634,11.483 12.634,20.213 0,12.42 -10.104,22.525 -22.526,22.525 M 215.848,84.014 c -1.432,2.37 -3.02,4.735 -5.234,4.735 -2.214,0 -3.756,-2.365 -5.188,-4.734 L 188.78,56.51 c -2.286,-3.77 0.13,-6.47 2.97,-6.47 h 37.78 c 2.808,0 5.194,2.637 3.042,6.345 z m -5.208,17.53 c -2.104,0 -3.802,-1.7 -3.802,-3.8 0,-2.1 1.698,-3.803 3.802,-3.803 2.098,0 3.797,1.703 3.797,3.803 0,2.1 -1.7,3.8 -3.797,3.8 M 198.197,95.092 H 180.16 c -12.422,0 -22.526,-10.104 -22.526,-22.525 0,-8.714 5.006,-16.475 12.6,-20.194 0.578,-0.245 1.963,-0.537 2.848,0.546 1.396,1.787 3.016,3.032 5.808,3.37 1.036,0.126 1.938,0.07 1.938,0.07 1.442,-0.168 2.036,0.623 2.276,1.008 l 18.766,31.007 c 2.26,3.39 0.988,6.718 -3.673,6.718 m -18,-51.52 c 2.1,0 3.803,1.703 3.803,3.8 0,2.1 -1.704,3.804 -3.803,3.804 -2.1,0 -3.803,-1.704 -3.803,-3.803 0,-2.1 1.704,-3.802 3.803,-3.802 m 4.51,-6.344 c 4.115,-10.46 14.375,-17.66 25.907,-17.66 11.53,0 21.79,7.2 25.906,17.66 0.71,2.057 -0.646,2.844 -0.646,2.844 -1.953,1.296 -2.598,2.78 -2.808,3.27 h -0.005 c -0.196,0.427 -0.555,1.397 -1.66,1.397 h -41.547 c -1.093,0 -1.38,-0.656 -1.656,-1.386 -0.08,-0.21 -0.54,-1.77 -2.875,-3.32 -0.598,-0.394 -1.23,-1.02 -0.614,-2.806 m 56.358,6.344 c 2.1,0 3.803,1.703 3.803,3.8 0,2.1 -1.704,3.804 -3.804,3.804 -2.098,0 -3.8,-1.704 -3.8,-3.803 0,-2.1 1.702,-3.802 3.8,-3.802 m 10.443,3.208 c -0.026,-0.01 -0.053,-0.027 -0.09,-0.04 -1.035,-0.377 -1.468,-1.18 -1.854,-2.34 -0.87,-2.604 -2.853,-4.5 -5.337,-5.432 -1.34,-0.537 -2.106,-1.808 -2.252,-2.256 l -0.005,0.005 c -4.508,-13.21 -17.113,-22.45 -31.358,-22.45 -14.244,0 -26.853,9.235 -31.36,22.453 v -0.005 c -0.155,0.464 -0.952,1.797 -2.368,2.303 -2.453,0.963 -4.267,2.526 -5.235,5.495 -0.374,1.15 -0.75,1.85 -1.838,2.25 -0.036,0.016 -0.068,0.026 -0.094,0.042 -10.396,4.198 -17.38,14.318 -17.38,25.766 0,15.344 12.48,27.828 27.823,27.828 h 18.928 c 2.734,0 3.093,0.73 4.01,2.27 1.464,2.46 4.375,4.07 7.516,4.07 3.416,0 6.395,-1.918 7.916,-4.735 0.51,-0.803 1.303,-1.604 3.604,-1.604 h 18.98 c 15.343,0 27.823,-12.483 27.823,-27.827 0,-11.47 -7.005,-21.604 -17.428,-25.787"
       style="fill:#d21f15" />
    <path
       id="path10"
       d="m 241.114,95.092 h -18.64 c -3.88,-0.25 -5.084,-3.02 -3.496,-6.015 l 19.396,-32.048 c 0.37,-0.634 0.938,-0.796 2.026,-0.67 v -0.006 h 0.016 c 3.51,0.478 6.256,-1.585 7.65,-3.303 0.882,-1.23 2.34,-0.948 2.94,-0.698 7.612,3.713 12.634,11.483 12.634,20.213 0,12.42 -10.104,22.525 -22.526,22.525 M 215.848,84.014 c -1.432,2.37 -3.02,4.735 -5.234,4.735 -2.214,0 -3.756,-2.365 -5.188,-4.734 L 188.78,56.51 c -2.286,-3.77 0.13,-6.47 2.97,-6.47 h 37.78 c 2.808,0 5.194,2.637 3.042,6.345 z m -5.208,17.53 c -2.104,0 -3.802,-1.7 -3.802,-3.8 0,-2.1 1.698,-3.803 3.802,-3.803 2.098,0 3.797,1.703 3.797,3.803 0,2.1 -1.7,3.8 -3.797,3.8 M 198.197,95.092 H 180.16 c -12.422,0 -22.526,-10.104 -22.526,-22.525 0,-8.714 5.006,-16.475 12.6,-20.194 0.578,-0.245 1.963,-0.537 2.848,0.546 1.396,1.787 3.016,3.032 5.808,3.37 1.036,0.126 1.938,0.07 1.938,0.07 1.442,-0.168 2.036,0.623 2.276,1.008 l 18.766,31.007 c 2.26,3.39 0.988,6.718 -3.673,6.718 m -18,-51.52 c 2.1,0 3.803,1.703 3.803,3.8 0,2.1 -1.704,3.804 -3.803,3.804 -2.1,0 -3.803,-1.704 -3.803,-3.803 0,-2.1 1.704,-3.802 3.803,-3.802 m 4.51,-6.344 c 4.115,-10.46 14.375,-17.66 25.907,-17.66 11.53,0 21.79,7.2 25.906,17.66 0.71,2.057 -0.646,2.844 -0.646,2.844 -1.953,1.296 -2.598,2.78 -2.808,3.27 h -0.005 c -0.196,0.427 -0.555,1.397 -1.66,1.397 h -41.547 c -1.093,0 -1.38,-0.656 -1.656,-1.386 -0.08,-0.21 -0.54,-1.77 -2.875,-3.32 -0.598,-0.394 -1.23,-1.02 -0.614,-2.806 m 56.358,6.344 c 2.1,0 3.803,1.703 3.803,3.8 0,2.1 -1.704,3.804 -3.804,3.804 -2.098,0 -3.8,-1.704 -3.8,-3.803 0,-2.1 1.702,-3.802 3.8,-3.802 m 10.443,3.208 c -0.026,-0.01 -0.053,-0.027 -0.09,-0.04 -1.035,-0.377 -1.468,-1.18 -1.854,-2.34 -0.87,-2.604 -2.853,-4.5 -5.337,-5.432 -1.34,-0.537 -2.106,-1.808 -2.252,-2.256 l -0.005,0.005 c -4.508,-13.21 -17.113,-22.45 -31.358,-22.45 -14.244,0 -26.853,9.235 -31.36,22.453 v -0.005 c -0.155,0.464 -0.952,1.797 -2.368,2.303 -2.453,0.963 -4.267,2.526 -5.235,5.495 -0.374,1.15 -0.75,1.85 -1.838,2.25 -0.036,0.016 -0.068,0.026 -0.094,0.042 -10.396,4.198 -17.38,14.318 -17.38,25.766 0,15.344 12.48,27.828 27.823,27.828 h 18.928 c 2.734,0 3.093,0.73 4.01,2.27 1.464,2.46 4.375,4.07 7.516,4.07 3.416,0 6.395,-1.918 7.916,-4.735 0.51,-0.803 1.303,-1.604 3.604,-1.604 h 18.98 c 15.343,0 27.823,-12.483 27.823,-27.827 0,-11.47 -7.005,-21.604 -17.428,-25.787"
       style="fill:#d21f15" />
  </g>
</svg>
